<svg height="580" width="580" xmlns="http://www.w3.org/2000/svg"><path d="m66.275 1.768c-41.335 0-64.571 21.371-64.571 65.036v450.123c0 40.844 20.895 62.229 62.192 62.229h452.024c41.307 0 62.229-20.315 62.229-62.229v-450.123c0-42.601-20.922-65.036-63.521-65.036-.004 0-448.495-.143-448.353 0z" fill="#111" stroke="#eee" stroke-width="3.408"/><g stroke="#fff" stroke-linecap="round"><path d="m215.07797 206.70435 94.26296-21.09793c43.12908-6.61406 65.35241 2.36896 79.89908 17.07927 56.76374-13.63905 79.71596 5.83052 98.75166 29.13523l-12.35376 16.47875c-15.24757-21.18221-40.58898-41.15378-79.58676-33.09924 4.96868 25.65181 20.84697 46.36283 42.56469 63.98162 13.77488 33.31599 28.0074 82.30861 51.17131 110.37097l-14.36387 22.10259c-15.6473-36.94613-38.33643-90.77666-70.70701-111.68132-24.92712-7.08883-47.94182-13.48574-65.74985-33.85287l-11.87562-3.84391c-29.18729 26.95421-73.86137 36.35473-114.70607 36.99781-27.68555 29.21716-50.995 70.23383-89.77424 119.41293l-26.93227-12.05596c32.21042-25.02405 56.82425-79.96951 84.38779-115.39428-1.18745-44.08362-26.68553-82.6131-44.07114-94.64151-17.3856-12.02844-38.26075 13.05606-58.271501 16.13583-11.478861 1.80184-20.118679-14.80915-13.466136-23.10725 6.942563-8.65986 33.346927-39.00083 56.557767-51.23782l8.97743-23.10725 5.38645 22.10259c27.75365 18.09096 56.67747 30.9437 79.89909 69.32175z" fill="#fff" fill-rule="evenodd" stroke-linejoin="round" stroke-width="9.139182"/><path d="m535.68075 383.70171c-68.48452 43.55677-149.76583 68.78712-236.94001 68.78712-90.59194 0-174.81988-27.2475-244.935616-73.99428" fill="none" stroke-width="30.000002"/></g></svg>